<mxfile host="Electron" agent="Mozilla/5.0 (Windows NT 10.0; Win64; x64) AppleWebKit/537.36 (KHTML, like Gecko) draw.io/28.1.2 Chrome/138.0.7204.243 Electron/37.4.0 Safari/537.36" version="28.1.2">
  <diagram id="sequenceDiagram" name="Sequence Diagram">
    <mxGraphModel dx="727" dy="441" grid="1" gridSize="10" guides="1" tooltips="1" connect="1" arrows="1" fold="1" page="1" pageScale="1" pageWidth="1169" pageHeight="827" math="0" shadow="0">
      <root>
        <mxCell id="0" />
        <mxCell id="1" parent="0" />
        <mxCell id="User" value="User" style="shape=umlLifeline;verticalAlign=top;" parent="1" vertex="1">
          <mxGeometry x="80" y="80" width="100" height="360" as="geometry" />
        </mxCell>
        <mxCell id="UI" value="UI" style="shape=umlLifeline;verticalAlign=top;" parent="1" vertex="1">
          <mxGeometry x="240" y="80" width="100" height="360" as="geometry" />
        </mxCell>
        <mxCell id="NoteManager" value="NoteManager" style="shape=umlLifeline;verticalAlign=top;" parent="1" vertex="1">
          <mxGeometry x="420" y="80" width="100" height="360" as="geometry" />
        </mxCell>
        <mxCell id="Note" value="Note" style="shape=umlLifeline;verticalAlign=top;" parent="1" vertex="1">
          <mxGeometry x="600" y="80" width="100" height="360" as="geometry" />
        </mxCell>
        <mxCell id="msg1" value="Create Note" style="endArrow=block;html=1;rounded=0;exitX=0.5;exitY=0.277;exitDx=0;exitDy=0;exitPerimeter=0;entryX=0.48;entryY=0.275;entryDx=0;entryDy=0;entryPerimeter=0;" parent="1" source="User" target="Note" edge="1">
          <mxGeometry relative="1" as="geometry">
            <mxPoint x="580" y="180" as="targetPoint" />
            <Array as="points">
              <mxPoint x="210" y="180" />
            </Array>
            <mxPoint as="offset" />
          </mxGeometry>
        </mxCell>
        <mxCell id="msg2" value="create_note(title, content)" style="endArrow=block;html=1;rounded=0;exitX=0.506;exitY=0.444;exitDx=0;exitDy=0;exitPerimeter=0;entryX=0.497;entryY=0.444;entryDx=0;entryDy=0;entryPerimeter=0;" parent="1" source="UI" target="Note" edge="1">
          <mxGeometry x="-0.0008" relative="1" as="geometry">
            <mxPoint x="580" y="240" as="targetPoint" />
            <Array as="points">
              <mxPoint x="380" y="240" />
            </Array>
            <mxPoint as="offset" />
          </mxGeometry>
        </mxCell>
        <mxCell id="msg3" value="new Note()" style="endArrow=block;html=1;rounded=0;exitX=0.497;exitY=0.555;exitDx=0;exitDy=0;exitPerimeter=0;entryX=0.488;entryY=0.557;entryDx=0;entryDy=0;entryPerimeter=0;" parent="1" source="NoteManager" target="Note" edge="1">
          <mxGeometry relative="1" as="geometry">
            <mxPoint x="650" y="260" as="targetPoint" />
          </mxGeometry>
        </mxCell>
        <mxCell id="msg4" value="note_created" style="dashed=1;endArrow=open;html=1;rounded=0;exitX=0.513;exitY=0.666;exitDx=0;exitDy=0;exitPerimeter=0;entryX=0.505;entryY=0.666;entryDx=0;entryDy=0;entryPerimeter=0;" parent="1" source="Note" target="NoteManager" edge="1">
          <mxGeometry relative="1" as="geometry">
            <mxPoint x="480" y="281" as="targetPoint" />
          </mxGeometry>
        </mxCell>
        <mxCell id="msg5" value="Display confirmation" style="dashed=1;endArrow=open;html=1;rounded=0;exitX=0.497;exitY=0.775;exitDx=0;exitDy=0;exitPerimeter=0;entryX=0.497;entryY=0.775;entryDx=0;entryDy=0;entryPerimeter=0;" parent="1" source="NoteManager" target="User" edge="1">
          <mxGeometry x="-0.0068" relative="1" as="geometry">
            <mxPoint y="280" as="targetPoint" />
            <Array as="points" />
            <mxPoint as="offset" />
          </mxGeometry>
        </mxCell>
      </root>
    </mxGraphModel>
  </diagram>
</mxfile>
